<svg width="1585" height="970" viewBox="0 0 1585 970" fill="none" xmlns="http://www.w3.org/2000/svg">
    <rect width="1585" height="970" fill="white"/>
    <rect x="1485" y="602" width="100" height="100" fill="#FF99AA"/>
    <rect y="385" width="100" height="100" fill="#FF99AA"/>
    <rect x="1285" y="870" width="100" height="100" fill="#00CCC0"/>
    <rect x="1485" y="189" width="100" height="100" fill="#00CCC0"/>
    <rect x="1265" y="150" width="100" height="100" fill="#FF99AA"/>
    <rect x="1285" y="770" width="100" height="100" fill="#3690EA"/>
    <rect x="346" width="100" height="100" fill="#3690EA"/>
    <rect x="671" y="720" width="100" height="100" fill="#3690EA"/>
    <rect x="1117" width="100" height="100" fill="#9C3CAC"/>
    <rect y="770" width="100" height="100" fill="#9C3CAC"/>
    <rect x="1017" width="100" height="100" fill="#9C3CAC"/>
    <rect x="1385" y="386" width="100" height="100" fill="#FF6600"/>
    <rect x="246" y="100" width="100" height="100" fill="#FF6600"/>
    <rect x="1365" y="50" width="100" height="100" fill="#FFA800"/>
    <rect x="100" y="870" width="100" height="100" fill="#FFA800"/>
    <rect x="1067" y="720" width="100" height="100" fill="#FFF8B8"/>
    </svg>
    